solid OpenSCAD_Model
  facet normal 0 0 -1
    outer loop
      vertex 0 -160 0
      vertex -4 -156 0
      vertex 0 0 0
    endloop
  endfacet
  facet normal 0 0 -1
    outer loop
      vertex -30 -160 0
      vertex -4 -156 0
      vertex 0 -160 0
    endloop
  endfacet
  facet normal -0 0 -1
    outer loop
      vertex -4 -156 0
      vertex -30 -160 0
      vertex -30 -156 0
    endloop
  endfacet
  facet normal 0 0 -1
    outer loop
      vertex 25 0 0
      vertex 29 -4 0
      vertex 25 -4 0
    endloop
  endfacet
  facet normal 0 0 -1
    outer loop
      vertex 29 -4 0
      vertex 25 0 0
      vertex 29 4 0
    endloop
  endfacet
  facet normal 0 0 -1
    outer loop
      vertex 0 0 0
      vertex 29 4 0
      vertex 25 0 0
    endloop
  endfacet
  facet normal 0 0 -1
    outer loop
      vertex 0 0 0
      vertex -4 4 0
      vertex 29 4 0
    endloop
  endfacet
  facet normal 0 0 -1
    outer loop
      vertex -4 4 0
      vertex 0 0 0
      vertex -4 -156 0
    endloop
  endfacet
  facet normal 0 0 1
    outer loop
      vertex 29 4 20
      vertex 25 0 20
      vertex 29 -4 20
    endloop
  endfacet
  facet normal 0 0 1
    outer loop
      vertex 29 4 20
      vertex 0 0 20
      vertex 25 0 20
    endloop
  endfacet
  facet normal -0 0 1
    outer loop
      vertex -4 4 20
      vertex 0 0 20
      vertex 29 4 20
    endloop
  endfacet
  facet normal 0 0 1
    outer loop
      vertex -4 -156 20
      vertex 0 0 20
      vertex -4 4 20
    endloop
  endfacet
  facet normal 0 0 1
    outer loop
      vertex 0 0 20
      vertex -4 -156 20
      vertex 0 -160 20
    endloop
  endfacet
  facet normal 0 0 1
    outer loop
      vertex -30 -160 20
      vertex -4 -156 20
      vertex -30 -156 20
    endloop
  endfacet
  facet normal 0 0 1
    outer loop
      vertex -4 -156 20
      vertex -30 -160 20
      vertex 0 -160 20
    endloop
  endfacet
  facet normal 0 0 1
    outer loop
      vertex 29 -4 20
      vertex 25 0 20
      vertex 25 -4 20
    endloop
  endfacet
  facet normal 0 -1 0
    outer loop
      vertex 0 0 0
      vertex 25 0 20
      vertex 0 0 20
    endloop
  endfacet
  facet normal 0 -1 -0
    outer loop
      vertex 25 0 20
      vertex 0 0 0
      vertex 25 0 0
    endloop
  endfacet
  facet normal -1 0 0
    outer loop
      vertex 25 -4 0
      vertex 25 0 20
      vertex 25 0 0
    endloop
  endfacet
  facet normal -1 -0 0
    outer loop
      vertex 25 0 20
      vertex 25 -4 0
      vertex 25 -4 20
    endloop
  endfacet
  facet normal 0 -1 0
    outer loop
      vertex 25 -4 0
      vertex 29 -4 20
      vertex 25 -4 20
    endloop
  endfacet
  facet normal 0 -1 -0
    outer loop
      vertex 29 -4 20
      vertex 25 -4 0
      vertex 29 -4 0
    endloop
  endfacet
  facet normal 1 -0 0
    outer loop
      vertex 29 -4 20
      vertex 29 4 0
      vertex 29 4 20
    endloop
  endfacet
  facet normal 1 0 0
    outer loop
      vertex 29 4 0
      vertex 29 -4 20
      vertex 29 -4 0
    endloop
  endfacet
  facet normal 0 1 -0
    outer loop
      vertex 29 4 0
      vertex -4 4 20
      vertex 29 4 20
    endloop
  endfacet
  facet normal 0 1 0
    outer loop
      vertex -4 4 20
      vertex 29 4 0
      vertex -4 4 0
    endloop
  endfacet
  facet normal -1 0 0
    outer loop
      vertex -4 -156 0
      vertex -4 4 20
      vertex -4 4 0
    endloop
  endfacet
  facet normal -1 -0 0
    outer loop
      vertex -4 4 20
      vertex -4 -156 0
      vertex -4 -156 20
    endloop
  endfacet
  facet normal 0 1 0
    outer loop
      vertex -4 -156 20
      vertex -17 -156 13
      vertex -30 -156 20
    endloop
  endfacet
  facet normal 0 1 0
    outer loop
      vertex -4 -156 20
      vertex -16.624 -156 12.9763
      vertex -17 -156 13
    endloop
  endfacet
  facet normal 0 1 0
    outer loop
      vertex -4 -156 20
      vertex -16.2539 -156 12.9057
      vertex -16.624 -156 12.9763
    endloop
  endfacet
  facet normal 0 1 0
    outer loop
      vertex -4 -156 20
      vertex -15.8956 -156 12.7893
      vertex -16.2539 -156 12.9057
    endloop
  endfacet
  facet normal 0 1 0
    outer loop
      vertex -4 -156 20
      vertex -15.5547 -156 12.6289
      vertex -15.8956 -156 12.7893
    endloop
  endfacet
  facet normal 0 1 0
    outer loop
      vertex -4 -156 20
      vertex -15.2366 -156 12.4271
      vertex -15.5547 -156 12.6289
    endloop
  endfacet
  facet normal 0 1 0
    outer loop
      vertex -4 -156 20
      vertex -14.9464 -156 12.1869
      vertex -15.2366 -156 12.4271
    endloop
  endfacet
  facet normal 0 1 0
    outer loop
      vertex -4 -156 20
      vertex -14.6885 -156 11.9123
      vertex -14.9464 -156 12.1869
    endloop
  endfacet
  facet normal 0 1 0
    outer loop
      vertex -4 -156 20
      vertex -14.467 -156 11.6075
      vertex -14.6885 -156 11.9123
    endloop
  endfacet
  facet normal 0 1 0
    outer loop
      vertex -4 -156 20
      vertex -14.2855 -156 11.2773
      vertex -14.467 -156 11.6075
    endloop
  endfacet
  facet normal 0 1 0
    outer loop
      vertex -4 -156 20
      vertex -14.1468 -156 10.9271
      vertex -14.2855 -156 11.2773
    endloop
  endfacet
  facet normal 0 1 0
    outer loop
      vertex -4 -156 20
      vertex -14.0531 -156 10.5621
      vertex -14.1468 -156 10.9271
    endloop
  endfacet
  facet normal 0 1 0
    outer loop
      vertex -4 -156 20
      vertex -14.0059 -156 10.1884
      vertex -14.0531 -156 10.5621
    endloop
  endfacet
  facet normal 0 1 0
    outer loop
      vertex -4 -156 20
      vertex -14.0059 -156 9.81163
      vertex -14.0059 -156 10.1884
    endloop
  endfacet
  facet normal 0 1 -0
    outer loop
      vertex -4 -156 0
      vertex -14.0059 -156 9.81163
      vertex -4 -156 20
    endloop
  endfacet
  facet normal 0 1 0
    outer loop
      vertex -14.0059 -156 9.81163
      vertex -4 -156 0
      vertex -14.0531 -156 9.43786
    endloop
  endfacet
  facet normal 0 1 0
    outer loop
      vertex -14.0531 -156 9.43786
      vertex -4 -156 0
      vertex -14.1468 -156 9.07295
    endloop
  endfacet
  facet normal 0 1 0
    outer loop
      vertex -14.1468 -156 9.07295
      vertex -4 -156 0
      vertex -14.2855 -156 8.72266
    endloop
  endfacet
  facet normal 0 1 0
    outer loop
      vertex -14.2855 -156 8.72266
      vertex -4 -156 0
      vertex -14.467 -156 8.39252
    endloop
  endfacet
  facet normal 0 1 0
    outer loop
      vertex -16.624 -156 7.02366
      vertex -4 -156 0
      vertex -17 -156 7
    endloop
  endfacet
  facet normal 0 1 0
    outer loop
      vertex -16.2539 -156 7.09425
      vertex -4 -156 0
      vertex -16.624 -156 7.02366
    endloop
  endfacet
  facet normal 0 1 0
    outer loop
      vertex -15.8956 -156 7.21067
      vertex -4 -156 0
      vertex -16.2539 -156 7.09425
    endloop
  endfacet
  facet normal 0 1 0
    outer loop
      vertex -15.5547 -156 7.37108
      vertex -4 -156 0
      vertex -15.8956 -156 7.21067
    endloop
  endfacet
  facet normal 0 1 0
    outer loop
      vertex -15.2366 -156 7.57295
      vertex -4 -156 0
      vertex -15.5547 -156 7.37108
    endloop
  endfacet
  facet normal 0 1 0
    outer loop
      vertex -14.9464 -156 7.81309
      vertex -4 -156 0
      vertex -15.2366 -156 7.57295
    endloop
  endfacet
  facet normal 0 1 0
    outer loop
      vertex -14.6885 -156 8.08773
      vertex -4 -156 0
      vertex -14.9464 -156 7.81309
    endloop
  endfacet
  facet normal 0 1 0
    outer loop
      vertex -14.467 -156 8.39252
      vertex -4 -156 0
      vertex -14.6885 -156 8.08773
    endloop
  endfacet
  facet normal 0 1 -0
    outer loop
      vertex -17.376 -156 12.9763
      vertex -30 -156 20
      vertex -17 -156 13
    endloop
  endfacet
  facet normal 0 1 -0
    outer loop
      vertex -17.7461 -156 12.9057
      vertex -30 -156 20
      vertex -17.376 -156 12.9763
    endloop
  endfacet
  facet normal 0 1 -0
    outer loop
      vertex -18.1044 -156 12.7893
      vertex -30 -156 20
      vertex -17.7461 -156 12.9057
    endloop
  endfacet
  facet normal 0 1 -0
    outer loop
      vertex -18.4453 -156 12.6289
      vertex -30 -156 20
      vertex -18.1044 -156 12.7893
    endloop
  endfacet
  facet normal 0 1 -0
    outer loop
      vertex -18.7634 -156 12.4271
      vertex -30 -156 20
      vertex -18.4453 -156 12.6289
    endloop
  endfacet
  facet normal 0 1 -0
    outer loop
      vertex -19.0536 -156 12.1869
      vertex -30 -156 20
      vertex -18.7634 -156 12.4271
    endloop
  endfacet
  facet normal 0 1 -0
    outer loop
      vertex -19.3115 -156 11.9123
      vertex -30 -156 20
      vertex -19.0536 -156 12.1869
    endloop
  endfacet
  facet normal 0 1 -0
    outer loop
      vertex -19.533 -156 11.6075
      vertex -30 -156 20
      vertex -19.3115 -156 11.9123
    endloop
  endfacet
  facet normal 0 1 -0
    outer loop
      vertex -19.7145 -156 11.2773
      vertex -30 -156 20
      vertex -19.533 -156 11.6075
    endloop
  endfacet
  facet normal 0 1 -0
    outer loop
      vertex -19.8532 -156 10.9271
      vertex -30 -156 20
      vertex -19.7145 -156 11.2773
    endloop
  endfacet
  facet normal 0 1 -0
    outer loop
      vertex -19.9469 -156 10.5621
      vertex -30 -156 20
      vertex -19.8532 -156 10.9271
    endloop
  endfacet
  facet normal 0 1 -0
    outer loop
      vertex -19.9941 -156 10.1884
      vertex -30 -156 20
      vertex -19.9469 -156 10.5621
    endloop
  endfacet
  facet normal 0 1 -0
    outer loop
      vertex -19.9941 -156 9.81163
      vertex -30 -156 20
      vertex -19.9941 -156 10.1884
    endloop
  endfacet
  facet normal 0 1 0
    outer loop
      vertex -30 -156 0
      vertex -19.9941 -156 9.81163
      vertex -19.9469 -156 9.43786
    endloop
  endfacet
  facet normal 0 1 0
    outer loop
      vertex -30 -156 0
      vertex -19.9469 -156 9.43786
      vertex -19.8532 -156 9.07295
    endloop
  endfacet
  facet normal 0 1 0
    outer loop
      vertex -30 -156 0
      vertex -19.8532 -156 9.07295
      vertex -19.7145 -156 8.72266
    endloop
  endfacet
  facet normal 0 1 0
    outer loop
      vertex -30 -156 0
      vertex -19.7145 -156 8.72266
      vertex -19.533 -156 8.39252
    endloop
  endfacet
  facet normal 0 1 0
    outer loop
      vertex -30 -156 0
      vertex -19.533 -156 8.39252
      vertex -19.3115 -156 8.08773
    endloop
  endfacet
  facet normal 0 1 0
    outer loop
      vertex -30 -156 0
      vertex -17 -156 7
      vertex -4 -156 0
    endloop
  endfacet
  facet normal 0 1 0
    outer loop
      vertex -17 -156 7
      vertex -30 -156 0
      vertex -17.376 -156 7.02366
    endloop
  endfacet
  facet normal 0 1 0
    outer loop
      vertex -17.376 -156 7.02366
      vertex -30 -156 0
      vertex -17.7461 -156 7.09425
    endloop
  endfacet
  facet normal 0 1 0
    outer loop
      vertex -17.7461 -156 7.09425
      vertex -30 -156 0
      vertex -18.1044 -156 7.21067
    endloop
  endfacet
  facet normal 0 1 0
    outer loop
      vertex -19.9941 -156 9.81163
      vertex -30 -156 0
      vertex -30 -156 20
    endloop
  endfacet
  facet normal 0 1 0
    outer loop
      vertex -19.0536 -156 7.81309
      vertex -30 -156 0
      vertex -19.3115 -156 8.08773
    endloop
  endfacet
  facet normal 0 1 0
    outer loop
      vertex -18.7634 -156 7.57295
      vertex -30 -156 0
      vertex -19.0536 -156 7.81309
    endloop
  endfacet
  facet normal 0 1 0
    outer loop
      vertex -18.4453 -156 7.37108
      vertex -30 -156 0
      vertex -18.7634 -156 7.57295
    endloop
  endfacet
  facet normal 0 1 0
    outer loop
      vertex -18.1044 -156 7.21067
      vertex -30 -156 0
      vertex -18.4453 -156 7.37108
    endloop
  endfacet
  facet normal -1 0 0
    outer loop
      vertex -30 -160 0
      vertex -30 -156 20
      vertex -30 -156 0
    endloop
  endfacet
  facet normal -1 -0 0
    outer loop
      vertex -30 -156 20
      vertex -30 -160 0
      vertex -30 -160 20
    endloop
  endfacet
  facet normal 0 -1 0
    outer loop
      vertex -16.624 -160 12.9763
      vertex -30 -160 20
      vertex -17 -160 13
    endloop
  endfacet
  facet normal 0 -1 0
    outer loop
      vertex -30 -160 20
      vertex -17.376 -160 12.9763
      vertex -17 -160 13
    endloop
  endfacet
  facet normal 0 -1 0
    outer loop
      vertex -30 -160 20
      vertex -17.7461 -160 12.9057
      vertex -17.376 -160 12.9763
    endloop
  endfacet
  facet normal 0 -1 0
    outer loop
      vertex -30 -160 20
      vertex -18.1044 -160 12.7893
      vertex -17.7461 -160 12.9057
    endloop
  endfacet
  facet normal 0 -1 0
    outer loop
      vertex -30 -160 20
      vertex -18.4453 -160 12.6289
      vertex -18.1044 -160 12.7893
    endloop
  endfacet
  facet normal 0 -1 0
    outer loop
      vertex -30 -160 20
      vertex -18.7634 -160 12.4271
      vertex -18.4453 -160 12.6289
    endloop
  endfacet
  facet normal 0 -1 0
    outer loop
      vertex -30 -160 20
      vertex -19.0536 -160 12.1869
      vertex -18.7634 -160 12.4271
    endloop
  endfacet
  facet normal 0 -1 0
    outer loop
      vertex -30 -160 20
      vertex -19.3115 -160 11.9123
      vertex -19.0536 -160 12.1869
    endloop
  endfacet
  facet normal 0 -1 0
    outer loop
      vertex -30 -160 20
      vertex -19.533 -160 11.6075
      vertex -19.3115 -160 11.9123
    endloop
  endfacet
  facet normal 0 -1 0
    outer loop
      vertex -30 -160 20
      vertex -19.7145 -160 11.2773
      vertex -19.533 -160 11.6075
    endloop
  endfacet
  facet normal 0 -1 0
    outer loop
      vertex -30 -160 20
      vertex -19.8532 -160 10.9271
      vertex -19.7145 -160 11.2773
    endloop
  endfacet
  facet normal 0 -1 0
    outer loop
      vertex -30 -160 20
      vertex -19.9469 -160 10.5621
      vertex -19.8532 -160 10.9271
    endloop
  endfacet
  facet normal 0 -1 0
    outer loop
      vertex -30 -160 20
      vertex -19.9941 -160 10.1884
      vertex -19.9469 -160 10.5621
    endloop
  endfacet
  facet normal 0 -1 0
    outer loop
      vertex -30 -160 20
      vertex -19.9941 -160 9.81163
      vertex -19.9941 -160 10.1884
    endloop
  endfacet
  facet normal 0 -1 0
    outer loop
      vertex -30 -160 0
      vertex -19.9941 -160 9.81163
      vertex -30 -160 20
    endloop
  endfacet
  facet normal 0 -1 -0
    outer loop
      vertex -19.9941 -160 9.81163
      vertex -30 -160 0
      vertex -19.9469 -160 9.43786
    endloop
  endfacet
  facet normal 0 -1 -0
    outer loop
      vertex -19.9469 -160 9.43786
      vertex -30 -160 0
      vertex -19.8532 -160 9.07295
    endloop
  endfacet
  facet normal 0 -1 -0
    outer loop
      vertex -19.8532 -160 9.07295
      vertex -30 -160 0
      vertex -19.7145 -160 8.72266
    endloop
  endfacet
  facet normal 0 -1 -0
    outer loop
      vertex -19.7145 -160 8.72266
      vertex -30 -160 0
      vertex -19.533 -160 8.39252
    endloop
  endfacet
  facet normal 0 -1 -0
    outer loop
      vertex -17.376 -160 7.02366
      vertex -30 -160 0
      vertex -17 -160 7
    endloop
  endfacet
  facet normal 0 -1 -0
    outer loop
      vertex -17.7461 -160 7.09425
      vertex -30 -160 0
      vertex -17.376 -160 7.02366
    endloop
  endfacet
  facet normal 0 -1 -0
    outer loop
      vertex -18.1044 -160 7.21067
      vertex -30 -160 0
      vertex -17.7461 -160 7.09425
    endloop
  endfacet
  facet normal 0 -1 -0
    outer loop
      vertex -18.4453 -160 7.37108
      vertex -30 -160 0
      vertex -18.1044 -160 7.21067
    endloop
  endfacet
  facet normal 0 -1 -0
    outer loop
      vertex -18.7634 -160 7.57295
      vertex -30 -160 0
      vertex -18.4453 -160 7.37108
    endloop
  endfacet
  facet normal 0 -1 -0
    outer loop
      vertex -19.0536 -160 7.81309
      vertex -30 -160 0
      vertex -18.7634 -160 7.57295
    endloop
  endfacet
  facet normal 0 -1 -0
    outer loop
      vertex -19.3115 -160 8.08773
      vertex -30 -160 0
      vertex -19.0536 -160 7.81309
    endloop
  endfacet
  facet normal 0 -1 -0
    outer loop
      vertex -19.533 -160 8.39252
      vertex -30 -160 0
      vertex -19.3115 -160 8.08773
    endloop
  endfacet
  facet normal 0 -1 0
    outer loop
      vertex -30 -160 20
      vertex -16.624 -160 12.9763
      vertex 0 -160 20
    endloop
  endfacet
  facet normal 0 -1 0
    outer loop
      vertex -16.2539 -160 12.9057
      vertex 0 -160 20
      vertex -16.624 -160 12.9763
    endloop
  endfacet
  facet normal 0 -1 0
    outer loop
      vertex -15.8956 -160 12.7893
      vertex 0 -160 20
      vertex -16.2539 -160 12.9057
    endloop
  endfacet
  facet normal 0 -1 0
    outer loop
      vertex -15.5547 -160 12.6289
      vertex 0 -160 20
      vertex -15.8956 -160 12.7893
    endloop
  endfacet
  facet normal 0 -1 0
    outer loop
      vertex -15.2366 -160 12.4271
      vertex 0 -160 20
      vertex -15.5547 -160 12.6289
    endloop
  endfacet
  facet normal 0 -1 0
    outer loop
      vertex -14.9464 -160 12.1869
      vertex 0 -160 20
      vertex -15.2366 -160 12.4271
    endloop
  endfacet
  facet normal 0 -1 0
    outer loop
      vertex -14.6885 -160 11.9123
      vertex 0 -160 20
      vertex -14.9464 -160 12.1869
    endloop
  endfacet
  facet normal 0 -1 0
    outer loop
      vertex -14.467 -160 11.6075
      vertex 0 -160 20
      vertex -14.6885 -160 11.9123
    endloop
  endfacet
  facet normal 0 -1 0
    outer loop
      vertex -14.2855 -160 11.2773
      vertex 0 -160 20
      vertex -14.467 -160 11.6075
    endloop
  endfacet
  facet normal 0 -1 0
    outer loop
      vertex -14.1468 -160 10.9271
      vertex 0 -160 20
      vertex -14.2855 -160 11.2773
    endloop
  endfacet
  facet normal 0 -1 0
    outer loop
      vertex -14.0531 -160 10.5621
      vertex 0 -160 20
      vertex -14.1468 -160 10.9271
    endloop
  endfacet
  facet normal 0 -1 0
    outer loop
      vertex -14.0059 -160 10.1884
      vertex 0 -160 20
      vertex -14.0531 -160 10.5621
    endloop
  endfacet
  facet normal 0 -1 0
    outer loop
      vertex -14.0059 -160 9.81163
      vertex 0 -160 20
      vertex -14.0059 -160 10.1884
    endloop
  endfacet
  facet normal 0 -1 0
    outer loop
      vertex 0 -160 0
      vertex -14.0059 -160 9.81163
      vertex -14.0531 -160 9.43786
    endloop
  endfacet
  facet normal 0 -1 0
    outer loop
      vertex 0 -160 0
      vertex -14.0531 -160 9.43786
      vertex -14.1468 -160 9.07295
    endloop
  endfacet
  facet normal 0 -1 0
    outer loop
      vertex 0 -160 0
      vertex -14.1468 -160 9.07295
      vertex -14.2855 -160 8.72266
    endloop
  endfacet
  facet normal 0 -1 0
    outer loop
      vertex 0 -160 0
      vertex -14.2855 -160 8.72266
      vertex -14.467 -160 8.39252
    endloop
  endfacet
  facet normal 0 -1 0
    outer loop
      vertex 0 -160 0
      vertex -14.467 -160 8.39252
      vertex -14.6885 -160 8.08773
    endloop
  endfacet
  facet normal 0 -1 0
    outer loop
      vertex 0 -160 0
      vertex -14.6885 -160 8.08773
      vertex -14.9464 -160 7.81309
    endloop
  endfacet
  facet normal 0 -1 0
    outer loop
      vertex 0 -160 0
      vertex -14.9464 -160 7.81309
      vertex -15.2366 -160 7.57295
    endloop
  endfacet
  facet normal 0 -1 0
    outer loop
      vertex -30 -160 0
      vertex -16.624 -160 7.02366
      vertex -17 -160 7
    endloop
  endfacet
  facet normal 0 -1 0
    outer loop
      vertex 0 -160 0
      vertex -16.624 -160 7.02366
      vertex -30 -160 0
    endloop
  endfacet
  facet normal 0 -1 0
    outer loop
      vertex -16.624 -160 7.02366
      vertex 0 -160 0
      vertex -16.2539 -160 7.09425
    endloop
  endfacet
  facet normal 0 -1 0
    outer loop
      vertex -16.2539 -160 7.09425
      vertex 0 -160 0
      vertex -15.8956 -160 7.21067
    endloop
  endfacet
  facet normal 0 -1 0
    outer loop
      vertex -14.0059 -160 9.81163
      vertex 0 -160 0
      vertex 0 -160 20
    endloop
  endfacet
  facet normal 0 -1 0
    outer loop
      vertex -15.5547 -160 7.37108
      vertex 0 -160 0
      vertex -15.2366 -160 7.57295
    endloop
  endfacet
  facet normal 0 -1 0
    outer loop
      vertex -15.8956 -160 7.21067
      vertex 0 -160 0
      vertex -15.5547 -160 7.37108
    endloop
  endfacet
  facet normal 1 -0 0
    outer loop
      vertex 0 -160 20
      vertex 0 0 0
      vertex 0 0 20
    endloop
  endfacet
  facet normal 1 0 0
    outer loop
      vertex 0 0 0
      vertex 0 -160 20
      vertex 0 -160 0
    endloop
  endfacet
  facet normal 0.929735 0 -0.36823
    outer loop
      vertex -19.7145 -160 11.2773
      vertex -19.8532 -156 10.9271
      vertex -19.7145 -156 11.2773
    endloop
  endfacet
  facet normal 0.929735 0 -0.36823
    outer loop
      vertex -19.8532 -156 10.9271
      vertex -19.7145 -160 11.2773
      vertex -19.8532 -160 10.9271
    endloop
  endfacet
  facet normal 0.929767 -0 0.368148
    outer loop
      vertex -19.8532 -160 9.07295
      vertex -19.7145 -156 8.72266
      vertex -19.8532 -156 9.07295
    endloop
  endfacet
  facet normal 0.929767 0 0.368148
    outer loop
      vertex -19.7145 -156 8.72266
      vertex -19.8532 -160 9.07295
      vertex -19.7145 -160 8.72266
    endloop
  endfacet
  facet normal -1 0 0
    outer loop
      vertex -14.0059 -160 9.81163
      vertex -14.0059 -156 10.1884
      vertex -14.0059 -156 9.81163
    endloop
  endfacet
  facet normal -1 -0 0
    outer loop
      vertex -14.0059 -156 10.1884
      vertex -14.0059 -160 9.81163
      vertex -14.0059 -160 10.1884
    endloop
  endfacet
  facet normal -0.0628013 0 0.998026
    outer loop
      vertex -17 -156 7
      vertex -16.624 -160 7.02366
      vertex -16.624 -156 7.02366
    endloop
  endfacet
  facet normal -0.0628013 0 0.998026
    outer loop
      vertex -16.624 -160 7.02366
      vertex -17 -156 7
      vertex -17 -160 7
    endloop
  endfacet
  facet normal -0.808945 0 0.587884
    outer loop
      vertex -14.6885 -160 8.08773
      vertex -14.467 -156 8.39252
      vertex -14.6885 -156 8.08773
    endloop
  endfacet
  facet normal -0.808945 0 0.587884
    outer loop
      vertex -14.467 -156 8.39252
      vertex -14.6885 -160 8.08773
      vertex -14.467 -160 8.39252
    endloop
  endfacet
  facet normal -0.637528 0 0.770428
    outer loop
      vertex -15.2366 -156 7.57295
      vertex -14.9464 -160 7.81309
      vertex -14.9464 -156 7.81309
    endloop
  endfacet
  facet normal -0.637528 0 0.770428
    outer loop
      vertex -14.9464 -160 7.81309
      vertex -15.2366 -156 7.57295
      vertex -15.2366 -160 7.57295
    endloop
  endfacet
  facet normal 1 -0 0
    outer loop
      vertex -19.9941 -160 10.1884
      vertex -19.9941 -156 9.81163
      vertex -19.9941 -156 10.1884
    endloop
  endfacet
  facet normal 1 0 0
    outer loop
      vertex -19.9941 -156 9.81163
      vertex -19.9941 -160 10.1884
      vertex -19.9941 -160 9.81163
    endloop
  endfacet
  facet normal 0.53569 0 -0.844415
    outer loop
      vertex -18.7634 -160 12.4271
      vertex -18.4453 -156 12.6289
      vertex -18.4453 -160 12.6289
    endloop
  endfacet
  facet normal 0.53569 0 -0.844415
    outer loop
      vertex -18.4453 -156 12.6289
      vertex -18.7634 -160 12.4271
      vertex -18.7634 -156 12.4271
    endloop
  endfacet
  facet normal 0.968579 -0 0.248707
    outer loop
      vertex -19.9469 -160 9.43786
      vertex -19.8532 -156 9.07295
      vertex -19.9469 -156 9.43786
    endloop
  endfacet
  facet normal 0.968579 0 0.248707
    outer loop
      vertex -19.8532 -156 9.07295
      vertex -19.9469 -160 9.43786
      vertex -19.8532 -160 9.07295
    endloop
  endfacet
  facet normal 0.876302 -0 0.481762
    outer loop
      vertex -19.7145 -160 8.72266
      vertex -19.533 -156 8.39252
      vertex -19.7145 -156 8.72266
    endloop
  endfacet
  facet normal 0.876302 0 0.481762
    outer loop
      vertex -19.533 -156 8.39252
      vertex -19.7145 -160 8.72266
      vertex -19.533 -160 8.39252
    endloop
  endfacet
  facet normal -0.308972 0 -0.951071
    outer loop
      vertex -16.2539 -160 12.9057
      vertex -15.8956 -156 12.7893
      vertex -15.8956 -160 12.7893
    endloop
  endfacet
  facet normal -0.308972 0 -0.951071
    outer loop
      vertex -15.8956 -156 12.7893
      vertex -16.2539 -160 12.9057
      vertex -16.2539 -156 12.9057
    endloop
  endfacet
  facet normal 0.425746 0 -0.904843
    outer loop
      vertex -18.4453 -160 12.6289
      vertex -18.1044 -156 12.7893
      vertex -18.1044 -160 12.7893
    endloop
  endfacet
  facet normal 0.425746 0 -0.904843
    outer loop
      vertex -18.1044 -156 12.7893
      vertex -18.4453 -160 12.6289
      vertex -18.4453 -156 12.6289
    endloop
  endfacet
  facet normal 0.425768 0 0.904833
    outer loop
      vertex -18.4453 -156 7.37108
      vertex -18.1044 -160 7.21067
      vertex -18.1044 -156 7.21067
    endloop
  endfacet
  facet normal 0.425768 0 0.904833
    outer loop
      vertex -18.1044 -160 7.21067
      vertex -18.4453 -156 7.37108
      vertex -18.4453 -160 7.37108
    endloop
  endfacet
  facet normal 0.992118 0 -0.125309
    outer loop
      vertex -19.9469 -160 10.5621
      vertex -19.9941 -156 10.1884
      vertex -19.9469 -156 10.5621
    endloop
  endfacet
  facet normal 0.992118 0 -0.125309
    outer loop
      vertex -19.9941 -156 10.1884
      vertex -19.9469 -160 10.5621
      vertex -19.9941 -160 10.1884
    endloop
  endfacet
  facet normal -0.187355 0 0.982292
    outer loop
      vertex -16.624 -156 7.02366
      vertex -16.2539 -160 7.09425
      vertex -16.2539 -156 7.09425
    endloop
  endfacet
  facet normal -0.187355 0 0.982292
    outer loop
      vertex -16.2539 -160 7.09425
      vertex -16.624 -156 7.02366
      vertex -16.624 -160 7.02366
    endloop
  endfacet
  facet normal 0.30902 0 0.951056
    outer loop
      vertex -18.1044 -156 7.21067
      vertex -17.7461 -160 7.09425
      vertex -17.7461 -156 7.09425
    endloop
  endfacet
  facet normal 0.30902 0 0.951056
    outer loop
      vertex -17.7461 -160 7.09425
      vertex -18.1044 -156 7.21067
      vertex -18.1044 -160 7.21067
    endloop
  endfacet
  facet normal -0.0629071 0 -0.998019
    outer loop
      vertex -17 -160 13
      vertex -16.624 -156 12.9763
      vertex -16.624 -160 12.9763
    endloop
  endfacet
  facet normal -0.0629071 0 -0.998019
    outer loop
      vertex -16.624 -156 12.9763
      vertex -17 -160 13
      vertex -17 -156 13
    endloop
  endfacet
  facet normal -0.728924 0 -0.684594
    outer loop
      vertex -14.6885 -160 11.9123
      vertex -14.9464 -156 12.1869
      vertex -14.6885 -156 11.9123
    endloop
  endfacet
  facet normal -0.728924 -0 -0.684594
    outer loop
      vertex -14.9464 -156 12.1869
      vertex -14.6885 -160 11.9123
      vertex -14.9464 -160 12.1869
    endloop
  endfacet
  facet normal -0.535822 0 0.844331
    outer loop
      vertex -15.5547 -156 7.37108
      vertex -15.2366 -160 7.57295
      vertex -15.2366 -156 7.57295
    endloop
  endfacet
  facet normal -0.535822 0 0.844331
    outer loop
      vertex -15.2366 -160 7.57295
      vertex -15.5547 -156 7.37108
      vertex -15.5547 -160 7.37108
    endloop
  endfacet
  facet normal 0.728974 -0 0.684541
    outer loop
      vertex -19.3115 -160 8.08773
      vertex -19.0536 -156 7.81309
      vertex -19.3115 -156 8.08773
    endloop
  endfacet
  facet normal 0.728974 0 0.684541
    outer loop
      vertex -19.0536 -156 7.81309
      vertex -19.3115 -160 8.08773
      vertex -19.0536 -160 7.81309
    endloop
  endfacet
  facet normal 0.187355 0 0.982292
    outer loop
      vertex -17.7461 -156 7.09425
      vertex -17.376 -160 7.02366
      vertex -17.376 -156 7.02366
    endloop
  endfacet
  facet normal 0.187355 0 0.982292
    outer loop
      vertex -17.376 -160 7.02366
      vertex -17.7461 -156 7.09425
      vertex -17.7461 -160 7.09425
    endloop
  endfacet
  facet normal -0.929767 0 0.368148
    outer loop
      vertex -14.2855 -160 8.72266
      vertex -14.1468 -156 9.07295
      vertex -14.2855 -156 8.72266
    endloop
  endfacet
  facet normal -0.929767 0 0.368148
    outer loop
      vertex -14.1468 -156 9.07295
      vertex -14.2855 -160 8.72266
      vertex -14.1468 -160 9.07295
    endloop
  endfacet
  facet normal -0.992121 0 0.125286
    outer loop
      vertex -14.0531 -160 9.43786
      vertex -14.0059 -156 9.81163
      vertex -14.0531 -156 9.43786
    endloop
  endfacet
  facet normal -0.992121 0 0.125286
    outer loop
      vertex -14.0059 -156 9.81163
      vertex -14.0531 -160 9.43786
      vertex -14.0059 -160 9.81163
    endloop
  endfacet
  facet normal -0.728974 0 0.684541
    outer loop
      vertex -14.9464 -160 7.81309
      vertex -14.6885 -156 8.08773
      vertex -14.9464 -156 7.81309
    endloop
  endfacet
  facet normal -0.728974 0 0.684541
    outer loop
      vertex -14.6885 -156 8.08773
      vertex -14.9464 -160 7.81309
      vertex -14.6885 -160 8.08773
    endloop
  endfacet
  facet normal -0.876302 0 0.481762
    outer loop
      vertex -14.467 -160 8.39252
      vertex -14.2855 -156 8.72266
      vertex -14.467 -156 8.39252
    endloop
  endfacet
  facet normal -0.876302 0 0.481762
    outer loop
      vertex -14.2855 -156 8.72266
      vertex -14.467 -160 8.39252
      vertex -14.2855 -160 8.72266
    endloop
  endfacet
  facet normal 0.808945 -0 0.587884
    outer loop
      vertex -19.533 -160 8.39252
      vertex -19.3115 -156 8.08773
      vertex -19.533 -156 8.39252
    endloop
  endfacet
  facet normal 0.808945 0 0.587884
    outer loop
      vertex -19.3115 -156 8.08773
      vertex -19.533 -160 8.39252
      vertex -19.3115 -160 8.08773
    endloop
  endfacet
  facet normal -0.929735 0 -0.36823
    outer loop
      vertex -14.1468 -160 10.9271
      vertex -14.2855 -156 11.2773
      vertex -14.1468 -156 10.9271
    endloop
  endfacet
  facet normal -0.929735 -0 -0.36823
    outer loop
      vertex -14.2855 -156 11.2773
      vertex -14.1468 -160 10.9271
      vertex -14.2855 -160 11.2773
    endloop
  endfacet
  facet normal -0.425768 0 0.904833
    outer loop
      vertex -15.8956 -156 7.21067
      vertex -15.5547 -160 7.37108
      vertex -15.5547 -156 7.37108
    endloop
  endfacet
  facet normal -0.425768 0 0.904833
    outer loop
      vertex -15.5547 -160 7.37108
      vertex -15.8956 -156 7.21067
      vertex -15.8956 -160 7.21067
    endloop
  endfacet
  facet normal -0.968579 0 0.248707
    outer loop
      vertex -14.1468 -160 9.07295
      vertex -14.0531 -156 9.43786
      vertex -14.1468 -156 9.07295
    endloop
  endfacet
  facet normal -0.968579 0 0.248707
    outer loop
      vertex -14.0531 -156 9.43786
      vertex -14.1468 -160 9.07295
      vertex -14.0531 -160 9.43786
    endloop
  endfacet
  facet normal 0.535822 0 0.844331
    outer loop
      vertex -18.7634 -156 7.57295
      vertex -18.4453 -160 7.37108
      vertex -18.4453 -156 7.37108
    endloop
  endfacet
  facet normal 0.535822 0 0.844331
    outer loop
      vertex -18.4453 -160 7.37108
      vertex -18.7634 -156 7.57295
      vertex -18.7634 -160 7.57295
    endloop
  endfacet
  facet normal 0.876339 0 -0.481695
    outer loop
      vertex -19.533 -160 11.6075
      vertex -19.7145 -156 11.2773
      vertex -19.533 -156 11.6075
    endloop
  endfacet
  facet normal 0.876339 0 -0.481695
    outer loop
      vertex -19.7145 -156 11.2773
      vertex -19.533 -160 11.6075
      vertex -19.7145 -160 11.2773
    endloop
  endfacet
  facet normal 0.728924 0 -0.684594
    outer loop
      vertex -19.0536 -160 12.1869
      vertex -19.3115 -156 11.9123
      vertex -19.0536 -156 12.1869
    endloop
  endfacet
  facet normal 0.728924 0 -0.684594
    outer loop
      vertex -19.3115 -156 11.9123
      vertex -19.0536 -160 12.1869
      vertex -19.3115 -160 11.9123
    endloop
  endfacet
  facet normal -0.876339 0 -0.481695
    outer loop
      vertex -14.2855 -160 11.2773
      vertex -14.467 -156 11.6075
      vertex -14.2855 -156 11.2773
    endloop
  endfacet
  facet normal -0.876339 -0 -0.481695
    outer loop
      vertex -14.467 -156 11.6075
      vertex -14.2855 -160 11.2773
      vertex -14.467 -160 11.6075
    endloop
  endfacet
  facet normal -0.425746 0 -0.904843
    outer loop
      vertex -15.8956 -160 12.7893
      vertex -15.5547 -156 12.6289
      vertex -15.5547 -160 12.6289
    endloop
  endfacet
  facet normal -0.425746 0 -0.904843
    outer loop
      vertex -15.5547 -156 12.6289
      vertex -15.8956 -160 12.7893
      vertex -15.8956 -156 12.7893
    endloop
  endfacet
  facet normal 0.992121 -0 0.125286
    outer loop
      vertex -19.9941 -160 9.81163
      vertex -19.9469 -156 9.43786
      vertex -19.9941 -156 9.81163
    endloop
  endfacet
  facet normal 0.992121 0 0.125286
    outer loop
      vertex -19.9469 -156 9.43786
      vertex -19.9941 -160 9.81163
      vertex -19.9469 -160 9.43786
    endloop
  endfacet
  facet normal 0.0628013 0 0.998026
    outer loop
      vertex -17.376 -156 7.02366
      vertex -17 -160 7
      vertex -17 -156 7
    endloop
  endfacet
  facet normal 0.0628013 0 0.998026
    outer loop
      vertex -17 -160 7
      vertex -17.376 -156 7.02366
      vertex -17.376 -160 7.02366
    endloop
  endfacet
  facet normal 0.18738 0 -0.982287
    outer loop
      vertex -17.7461 -160 12.9057
      vertex -17.376 -156 12.9763
      vertex -17.376 -160 12.9763
    endloop
  endfacet
  facet normal 0.18738 0 -0.982287
    outer loop
      vertex -17.376 -156 12.9763
      vertex -17.7461 -160 12.9057
      vertex -17.7461 -156 12.9057
    endloop
  endfacet
  facet normal -0.968593 0 -0.24865
    outer loop
      vertex -14.0531 -160 10.5621
      vertex -14.1468 -156 10.9271
      vertex -14.0531 -156 10.5621
    endloop
  endfacet
  facet normal -0.968593 -0 -0.24865
    outer loop
      vertex -14.1468 -156 10.9271
      vertex -14.0531 -160 10.5621
      vertex -14.1468 -160 10.9271
    endloop
  endfacet
  facet normal -0.18738 0 -0.982287
    outer loop
      vertex -16.624 -160 12.9763
      vertex -16.2539 -156 12.9057
      vertex -16.2539 -160 12.9057
    endloop
  endfacet
  facet normal -0.18738 0 -0.982287
    outer loop
      vertex -16.2539 -156 12.9057
      vertex -16.624 -160 12.9763
      vertex -16.624 -156 12.9763
    endloop
  endfacet
  facet normal -0.808954 0 -0.587872
    outer loop
      vertex -14.467 -160 11.6075
      vertex -14.6885 -156 11.9123
      vertex -14.467 -156 11.6075
    endloop
  endfacet
  facet normal -0.808954 -0 -0.587872
    outer loop
      vertex -14.6885 -156 11.9123
      vertex -14.467 -160 11.6075
      vertex -14.6885 -160 11.9123
    endloop
  endfacet
  facet normal 0.0629071 0 -0.998019
    outer loop
      vertex -17.376 -160 12.9763
      vertex -17 -156 13
      vertex -17 -160 13
    endloop
  endfacet
  facet normal 0.0629071 0 -0.998019
    outer loop
      vertex -17 -156 13
      vertex -17.376 -160 12.9763
      vertex -17.376 -156 12.9763
    endloop
  endfacet
  facet normal -0.30902 0 0.951056
    outer loop
      vertex -16.2539 -156 7.09425
      vertex -15.8956 -160 7.21067
      vertex -15.8956 -156 7.21067
    endloop
  endfacet
  facet normal -0.30902 0 0.951056
    outer loop
      vertex -15.8956 -160 7.21067
      vertex -16.2539 -156 7.09425
      vertex -16.2539 -160 7.09425
    endloop
  endfacet
  facet normal 0.637528 0 0.770428
    outer loop
      vertex -19.0536 -156 7.81309
      vertex -18.7634 -160 7.57295
      vertex -18.7634 -156 7.57295
    endloop
  endfacet
  facet normal 0.637528 0 0.770428
    outer loop
      vertex -18.7634 -160 7.57295
      vertex -19.0536 -156 7.81309
      vertex -19.0536 -160 7.81309
    endloop
  endfacet
  facet normal 0.968593 0 -0.24865
    outer loop
      vertex -19.8532 -160 10.9271
      vertex -19.9469 -156 10.5621
      vertex -19.8532 -156 10.9271
    endloop
  endfacet
  facet normal 0.968593 0 -0.24865
    outer loop
      vertex -19.9469 -156 10.5621
      vertex -19.8532 -160 10.9271
      vertex -19.9469 -160 10.5621
    endloop
  endfacet
  facet normal -0.992118 0 -0.125309
    outer loop
      vertex -14.0059 -160 10.1884
      vertex -14.0531 -156 10.5621
      vertex -14.0059 -156 10.1884
    endloop
  endfacet
  facet normal -0.992118 -0 -0.125309
    outer loop
      vertex -14.0531 -156 10.5621
      vertex -14.0059 -160 10.1884
      vertex -14.0531 -160 10.5621
    endloop
  endfacet
  facet normal -0.53569 0 -0.844415
    outer loop
      vertex -15.5547 -160 12.6289
      vertex -15.2366 -156 12.4271
      vertex -15.2366 -160 12.4271
    endloop
  endfacet
  facet normal -0.53569 0 -0.844415
    outer loop
      vertex -15.2366 -156 12.4271
      vertex -15.5547 -160 12.6289
      vertex -15.5547 -156 12.6289
    endloop
  endfacet
  facet normal 0.308972 0 -0.951071
    outer loop
      vertex -18.1044 -160 12.7893
      vertex -17.7461 -156 12.9057
      vertex -17.7461 -160 12.9057
    endloop
  endfacet
  facet normal 0.308972 0 -0.951071
    outer loop
      vertex -17.7461 -156 12.9057
      vertex -18.1044 -160 12.7893
      vertex -18.1044 -156 12.7893
    endloop
  endfacet
  facet normal 0.637622 0 -0.770349
    outer loop
      vertex -19.0536 -160 12.1869
      vertex -18.7634 -156 12.4271
      vertex -18.7634 -160 12.4271
    endloop
  endfacet
  facet normal 0.637622 0 -0.770349
    outer loop
      vertex -18.7634 -156 12.4271
      vertex -19.0536 -160 12.1869
      vertex -19.0536 -156 12.1869
    endloop
  endfacet
  facet normal -0.637622 0 -0.770349
    outer loop
      vertex -15.2366 -160 12.4271
      vertex -14.9464 -156 12.1869
      vertex -14.9464 -160 12.1869
    endloop
  endfacet
  facet normal -0.637622 0 -0.770349
    outer loop
      vertex -14.9464 -156 12.1869
      vertex -15.2366 -160 12.4271
      vertex -15.2366 -156 12.4271
    endloop
  endfacet
  facet normal 0.808954 0 -0.587872
    outer loop
      vertex -19.3115 -160 11.9123
      vertex -19.533 -156 11.6075
      vertex -19.3115 -156 11.9123
    endloop
  endfacet
  facet normal 0.808954 0 -0.587872
    outer loop
      vertex -19.533 -156 11.6075
      vertex -19.3115 -160 11.9123
      vertex -19.533 -160 11.6075
    endloop
  endfacet
endsolid OpenSCAD_Model
