solid OpenSCAD_Model
  facet normal 0 0 -1
    outer loop
      vertex 25 -60 0
      vertex -4 -56 0
      vertex 29 -56 0
    endloop
  endfacet
  facet normal 0 0 -1
    outer loop
      vertex -53 -76 0
      vertex -49 -80 0
      vertex -49 -84 0
    endloop
  endfacet
  facet normal 0 0 -1
    outer loop
      vertex -4 -56 0
      vertex 0 -60 0
      vertex -4 -80 0
    endloop
  endfacet
  facet normal 0 0 -1
    outer loop
      vertex 25 -60 0
      vertex 29 -64 0
      vertex 25 -64 0
    endloop
  endfacet
  facet normal 0 0 -1
    outer loop
      vertex 25 -60 0
      vertex 29 -56 0
      vertex 29 -64 0
    endloop
  endfacet
  facet normal 0 0 -1
    outer loop
      vertex 0 -60 0
      vertex -4 -56 0
      vertex 25 -60 0
    endloop
  endfacet
  facet normal 0 0 -1
    outer loop
      vertex -4 -84 0
      vertex -4 -80 0
      vertex 0 -60 0
    endloop
  endfacet
  facet normal 0 0 -1
    outer loop
      vertex -53 -88 0
      vertex -53 -76 0
      vertex -49 -84 0
    endloop
  endfacet
  facet normal 0 0 -1
    outer loop
      vertex -49 -80 0
      vertex -53 -76 0
      vertex -49 -76 0
    endloop
  endfacet
  facet normal 0 0 -1
    outer loop
      vertex -49 -84 0
      vertex -49 -80 0
      vertex -4 -84 0
    endloop
  endfacet
  facet normal 0 0 -1
    outer loop
      vertex -53 -88 0
      vertex -49 -84 0
      vertex -49 -88 0
    endloop
  endfacet
  facet normal 0 0 -1
    outer loop
      vertex -4 -128 0
      vertex -4 -84 0
      vertex 0 -60 0
    endloop
  endfacet
  facet normal 0 0 -1
    outer loop
      vertex -4 -84 0
      vertex -49 -80 0
      vertex -4 -80 0
    endloop
  endfacet
  facet normal 0 0 -1
    outer loop
      vertex 0 -160 0
      vertex -4 -128 0
      vertex 0 -60 0
    endloop
  endfacet
  facet normal 0 0 -1
    outer loop
      vertex -53 -124 0
      vertex -49 -128 0
      vertex -49 -132 0
    endloop
  endfacet
  facet normal 0 0 -1
    outer loop
      vertex -49 -128 0
      vertex -53 -124 0
      vertex -49 -124 0
    endloop
  endfacet
  facet normal -0 0 -1
    outer loop
      vertex -49 -132 0
      vertex -53 -136 0
      vertex -53 -124 0
    endloop
  endfacet
  facet normal 0 0 -1
    outer loop
      vertex -49 -132 0
      vertex -49 -128 0
      vertex -4 -132 0
    endloop
  endfacet
  facet normal 0 0 -1
    outer loop
      vertex -53 -136 0
      vertex -49 -132 0
      vertex -49 -136 0
    endloop
  endfacet
  facet normal 0 0 -1
    outer loop
      vertex 0 -160 0
      vertex -4 -132 0
      vertex -4 -128 0
    endloop
  endfacet
  facet normal 0 0 -1
    outer loop
      vertex -4 -132 0
      vertex -49 -128 0
      vertex -4 -128 0
    endloop
  endfacet
  facet normal 0 0 -1
    outer loop
      vertex 0 -160 0
      vertex -4 -156 0
      vertex -4 -132 0
    endloop
  endfacet
  facet normal 0 0 1
    outer loop
      vertex 29 -56 10
      vertex -4 -56 10
      vertex 25 -60 10
    endloop
  endfacet
  facet normal 0 -0 1
    outer loop
      vertex -49 -84 10
      vertex -49 -80 10
      vertex -53 -76 10
    endloop
  endfacet
  facet normal 0 0 1
    outer loop
      vertex -4 -80 10
      vertex 0 -60 10
      vertex -4 -56 10
    endloop
  endfacet
  facet normal 0 0 1
    outer loop
      vertex 25 -64 10
      vertex 29 -64 10
      vertex 25 -60 10
    endloop
  endfacet
  facet normal 0 -0 1
    outer loop
      vertex 29 -64 10
      vertex 29 -56 10
      vertex 25 -60 10
    endloop
  endfacet
  facet normal 0 0 1
    outer loop
      vertex 25 -60 10
      vertex -4 -56 10
      vertex 0 -60 10
    endloop
  endfacet
  facet normal 0 0 1
    outer loop
      vertex 0 -60 10
      vertex -4 -80 10
      vertex -4 -84 10
    endloop
  endfacet
  facet normal 0 0 1
    outer loop
      vertex -49 -84 10
      vertex -53 -76 10
      vertex -53 -88 10
    endloop
  endfacet
  facet normal 0 0 1
    outer loop
      vertex -49 -76 10
      vertex -53 -76 10
      vertex -49 -80 10
    endloop
  endfacet
  facet normal 0 0 1
    outer loop
      vertex -4 -84 10
      vertex -49 -80 10
      vertex -49 -84 10
    endloop
  endfacet
  facet normal 0 -0 1
    outer loop
      vertex -49 -88 10
      vertex -49 -84 10
      vertex -53 -88 10
    endloop
  endfacet
  facet normal 0 0 1
    outer loop
      vertex 0 -60 10
      vertex -4 -84 10
      vertex -4 -128 10
    endloop
  endfacet
  facet normal 0 0 1
    outer loop
      vertex -4 -80 10
      vertex -49 -80 10
      vertex -4 -84 10
    endloop
  endfacet
  facet normal 0 0 1
    outer loop
      vertex 0 -60 10
      vertex -4 -128 10
      vertex 0 -160 10
    endloop
  endfacet
  facet normal 0 -0 1
    outer loop
      vertex -49 -132 10
      vertex -49 -128 10
      vertex -53 -124 10
    endloop
  endfacet
  facet normal 0 0 1
    outer loop
      vertex -49 -124 10
      vertex -53 -124 10
      vertex -49 -128 10
    endloop
  endfacet
  facet normal 0 0 1
    outer loop
      vertex -53 -124 10
      vertex -53 -136 10
      vertex -49 -132 10
    endloop
  endfacet
  facet normal 0 0 1
    outer loop
      vertex -4 -132 10
      vertex -49 -128 10
      vertex -49 -132 10
    endloop
  endfacet
  facet normal 0 -0 1
    outer loop
      vertex -49 -136 10
      vertex -49 -132 10
      vertex -53 -136 10
    endloop
  endfacet
  facet normal 0 0 1
    outer loop
      vertex -4 -128 10
      vertex -4 -132 10
      vertex 0 -160 10
    endloop
  endfacet
  facet normal 0 0 1
    outer loop
      vertex -4 -128 10
      vertex -49 -128 10
      vertex -4 -132 10
    endloop
  endfacet
  facet normal 0 0 1
    outer loop
      vertex -4 -132 10
      vertex -4 -156 10
      vertex 0 -160 10
    endloop
  endfacet
  facet normal 0 -1 0
    outer loop
      vertex 25 -60 0
      vertex 0 -60 10
      vertex 0 -60 0
    endloop
  endfacet
  facet normal 0 -1 0
    outer loop
      vertex 25 -60 0
      vertex 25 -60 10
      vertex 0 -60 10
    endloop
  endfacet
  facet normal -1 0 0
    outer loop
      vertex 25 -64 0
      vertex 25 -60 10
      vertex 25 -60 0
    endloop
  endfacet
  facet normal -1 0 0
    outer loop
      vertex 25 -64 0
      vertex 25 -64 10
      vertex 25 -60 10
    endloop
  endfacet
  facet normal 0 -1 0
    outer loop
      vertex 29 -64 0
      vertex 25 -64 10
      vertex 25 -64 0
    endloop
  endfacet
  facet normal 0 -1 0
    outer loop
      vertex 29 -64 0
      vertex 29 -64 10
      vertex 25 -64 10
    endloop
  endfacet
  facet normal 1 0 0
    outer loop
      vertex 29 -56 0
      vertex 29 -64 10
      vertex 29 -64 0
    endloop
  endfacet
  facet normal 1 0 -0
    outer loop
      vertex 29 -56 0
      vertex 29 -56 10
      vertex 29 -64 10
    endloop
  endfacet
  facet normal 0 1 0
    outer loop
      vertex -4 -56 0
      vertex 29 -56 10
      vertex 29 -56 0
    endloop
  endfacet
  facet normal 0 1 0
    outer loop
      vertex -4 -56 0
      vertex -4 -56 10
      vertex 29 -56 10
    endloop
  endfacet
  facet normal -1 0 0
    outer loop
      vertex -4 -80 0
      vertex -4 -56 10
      vertex -4 -56 0
    endloop
  endfacet
  facet normal -1 0 0
    outer loop
      vertex -4 -80 0
      vertex -4 -80 10
      vertex -4 -56 10
    endloop
  endfacet
  facet normal 0 1 0
    outer loop
      vertex -49 -80 0
      vertex -4 -80 10
      vertex -4 -80 0
    endloop
  endfacet
  facet normal 0 1 0
    outer loop
      vertex -49 -80 0
      vertex -49 -80 10
      vertex -4 -80 10
    endloop
  endfacet
  facet normal 1 0 0
    outer loop
      vertex -49 -76 0
      vertex -49 -80 10
      vertex -49 -80 0
    endloop
  endfacet
  facet normal 1 0 -0
    outer loop
      vertex -49 -76 0
      vertex -49 -76 10
      vertex -49 -80 10
    endloop
  endfacet
  facet normal 0 1 0
    outer loop
      vertex -53 -76 0
      vertex -49 -76 10
      vertex -49 -76 0
    endloop
  endfacet
  facet normal 0 1 0
    outer loop
      vertex -53 -76 0
      vertex -53 -76 10
      vertex -49 -76 10
    endloop
  endfacet
  facet normal -1 0 0
    outer loop
      vertex -53 -88 0
      vertex -53 -76 10
      vertex -53 -76 0
    endloop
  endfacet
  facet normal -1 0 0
    outer loop
      vertex -53 -88 0
      vertex -53 -88 10
      vertex -53 -76 10
    endloop
  endfacet
  facet normal 0 -1 0
    outer loop
      vertex -49 -88 0
      vertex -53 -88 10
      vertex -53 -88 0
    endloop
  endfacet
  facet normal 0 -1 0
    outer loop
      vertex -49 -88 0
      vertex -49 -88 10
      vertex -53 -88 10
    endloop
  endfacet
  facet normal 1 0 0
    outer loop
      vertex -49 -84 0
      vertex -49 -88 10
      vertex -49 -88 0
    endloop
  endfacet
  facet normal 1 0 -0
    outer loop
      vertex -49 -84 0
      vertex -49 -84 10
      vertex -49 -88 10
    endloop
  endfacet
  facet normal 0 -1 0
    outer loop
      vertex -4 -84 0
      vertex -49 -84 10
      vertex -49 -84 0
    endloop
  endfacet
  facet normal 0 -1 0
    outer loop
      vertex -4 -84 0
      vertex -4 -84 10
      vertex -49 -84 10
    endloop
  endfacet
  facet normal -1 0 0
    outer loop
      vertex -4 -128 0
      vertex -4 -84 10
      vertex -4 -84 0
    endloop
  endfacet
  facet normal -1 0 0
    outer loop
      vertex -4 -128 0
      vertex -4 -128 10
      vertex -4 -84 10
    endloop
  endfacet
  facet normal 0 1 0
    outer loop
      vertex -49 -128 0
      vertex -4 -128 10
      vertex -4 -128 0
    endloop
  endfacet
  facet normal 0 1 0
    outer loop
      vertex -49 -128 0
      vertex -49 -128 10
      vertex -4 -128 10
    endloop
  endfacet
  facet normal 1 0 0
    outer loop
      vertex -49 -124 0
      vertex -49 -128 10
      vertex -49 -128 0
    endloop
  endfacet
  facet normal 1 0 -0
    outer loop
      vertex -49 -124 0
      vertex -49 -124 10
      vertex -49 -128 10
    endloop
  endfacet
  facet normal 0 1 0
    outer loop
      vertex -53 -124 0
      vertex -49 -124 10
      vertex -49 -124 0
    endloop
  endfacet
  facet normal 0 1 0
    outer loop
      vertex -53 -124 0
      vertex -53 -124 10
      vertex -49 -124 10
    endloop
  endfacet
  facet normal -1 0 0
    outer loop
      vertex -53 -136 0
      vertex -53 -124 10
      vertex -53 -124 0
    endloop
  endfacet
  facet normal -1 0 0
    outer loop
      vertex -53 -136 0
      vertex -53 -136 10
      vertex -53 -124 10
    endloop
  endfacet
  facet normal 0 -1 0
    outer loop
      vertex -49 -136 0
      vertex -53 -136 10
      vertex -53 -136 0
    endloop
  endfacet
  facet normal 0 -1 0
    outer loop
      vertex -49 -136 0
      vertex -49 -136 10
      vertex -53 -136 10
    endloop
  endfacet
  facet normal 1 0 0
    outer loop
      vertex -49 -132 0
      vertex -49 -136 10
      vertex -49 -136 0
    endloop
  endfacet
  facet normal 1 0 -0
    outer loop
      vertex -49 -132 0
      vertex -49 -132 10
      vertex -49 -136 10
    endloop
  endfacet
  facet normal 0 -1 0
    outer loop
      vertex -4 -132 0
      vertex -49 -132 10
      vertex -49 -132 0
    endloop
  endfacet
  facet normal 0 -1 0
    outer loop
      vertex -4 -132 0
      vertex -4 -132 10
      vertex -49 -132 10
    endloop
  endfacet
  facet normal -1 0 0
    outer loop
      vertex -4 -156 0
      vertex -4 -132 10
      vertex -4 -132 0
    endloop
  endfacet
  facet normal -1 0 0
    outer loop
      vertex -4 -156 0
      vertex -4 -156 10
      vertex -4 -132 10
    endloop
  endfacet
  facet normal -0.707107 -0.707107 0
    outer loop
      vertex 0 -160 0
      vertex -4 -156 10
      vertex -4 -156 0
    endloop
  endfacet
  facet normal -0.707107 -0.707107 0
    outer loop
      vertex 0 -160 0
      vertex 0 -160 10
      vertex -4 -156 10
    endloop
  endfacet
  facet normal 1 0 0
    outer loop
      vertex 0 -60 0
      vertex 0 -160 10
      vertex 0 -160 0
    endloop
  endfacet
  facet normal 1 0 -0
    outer loop
      vertex 0 -60 0
      vertex 0 -60 10
      vertex 0 -160 10
    endloop
  endfacet
endsolid OpenSCAD_Model
