solid OpenSCAD_Model
  facet normal 1 -0 0
    outer loop
      vertex 0 -160 90
      vertex 0 -60 0
      vertex 0 -60 90
    endloop
  endfacet
  facet normal 1 0 0
    outer loop
      vertex 0 -60 0
      vertex 0 -160 90
      vertex 0 -160 0
    endloop
  endfacet
  facet normal 0 0 1
    outer loop
      vertex 29 -56 90
      vertex 25 -60 90
      vertex 29 -64 90
    endloop
  endfacet
  facet normal 0 0 1
    outer loop
      vertex 29 -56 90
      vertex 0 -60 90
      vertex 25 -60 90
    endloop
  endfacet
  facet normal -0 0 1
    outer loop
      vertex -4 -56 90
      vertex 0 -60 90
      vertex 29 -56 90
    endloop
  endfacet
  facet normal 0 0 1
    outer loop
      vertex -4 -110 90
      vertex 0 -60 90
      vertex -4 -56 90
    endloop
  endfacet
  facet normal 0 0 1
    outer loop
      vertex 0 -60 90
      vertex -4 -110 90
      vertex 0 -160 90
    endloop
  endfacet
  facet normal 0 0 1
    outer loop
      vertex -60 -160 90
      vertex -4 -110 90
      vertex -60 -110 90
    endloop
  endfacet
  facet normal 0 0 1
    outer loop
      vertex -4 -110 90
      vertex -60 -160 90
      vertex 0 -160 90
    endloop
  endfacet
  facet normal 0 0 1
    outer loop
      vertex 29 -64 90
      vertex 25 -60 90
      vertex 25 -64 90
    endloop
  endfacet
  facet normal 0 0 -1
    outer loop
      vertex 0 -160 0
      vertex -4 -110 0
      vertex 0 -60 0
    endloop
  endfacet
  facet normal 0 0 -1
    outer loop
      vertex -60 -160 0
      vertex -4 -110 0
      vertex 0 -160 0
    endloop
  endfacet
  facet normal -0 0 -1
    outer loop
      vertex -4 -110 0
      vertex -60 -160 0
      vertex -60 -110 0
    endloop
  endfacet
  facet normal 0 0 -1
    outer loop
      vertex 25 -60 0
      vertex 29 -64 0
      vertex 25 -64 0
    endloop
  endfacet
  facet normal 0 0 -1
    outer loop
      vertex 29 -64 0
      vertex 25 -60 0
      vertex 29 -56 0
    endloop
  endfacet
  facet normal 0 0 -1
    outer loop
      vertex 0 -60 0
      vertex 29 -56 0
      vertex 25 -60 0
    endloop
  endfacet
  facet normal 0 0 -1
    outer loop
      vertex 0 -60 0
      vertex -4 -56 0
      vertex 29 -56 0
    endloop
  endfacet
  facet normal 0 0 -1
    outer loop
      vertex -4 -56 0
      vertex 0 -60 0
      vertex -4 -110 0
    endloop
  endfacet
  facet normal -1 0 0
    outer loop
      vertex -60 -160 0
      vertex -60 -110 90
      vertex -60 -110 0
    endloop
  endfacet
  facet normal -1 -0 0
    outer loop
      vertex -60 -110 90
      vertex -60 -160 0
      vertex -60 -160 90
    endloop
  endfacet
  facet normal 0 1 0
    outer loop
      vertex -4 -110 2.5
      vertex -4 -110 0
      vertex -57.5 -110 2.5
    endloop
  endfacet
  facet normal 0 1 0
    outer loop
      vertex -57.5 -110 87.5
      vertex -4 -110 90
      vertex -4 -110 87.5
    endloop
  endfacet
  facet normal 0 1 0
    outer loop
      vertex -4 -110 90
      vertex -57.5 -110 87.5
      vertex -60 -110 90
    endloop
  endfacet
  facet normal 0 1 -0
    outer loop
      vertex -57.5 -110 2.5
      vertex -60 -110 90
      vertex -57.5 -110 87.5
    endloop
  endfacet
  facet normal 0 1 0
    outer loop
      vertex -57.5 -110 2.5
      vertex -60 -110 0
      vertex -60 -110 90
    endloop
  endfacet
  facet normal 0 1 0
    outer loop
      vertex -60 -110 0
      vertex -57.5 -110 2.5
      vertex -4 -110 0
    endloop
  endfacet
  facet normal 0 -1 0
    outer loop
      vertex -4 -110 2.5
      vertex -2.5 -110 87.5
      vertex -4 -110 87.5
    endloop
  endfacet
  facet normal 0 -1 -0
    outer loop
      vertex -2.5 -110 87.5
      vertex -4 -110 2.5
      vertex -2.5 -110 2.5
    endloop
  endfacet
  facet normal 0 -1 0
    outer loop
      vertex -60 -160 0
      vertex 0 -160 90
      vertex -60 -160 90
    endloop
  endfacet
  facet normal 0 -1 -0
    outer loop
      vertex 0 -160 90
      vertex -60 -160 0
      vertex 0 -160 0
    endloop
  endfacet
  facet normal -1 0 0
    outer loop
      vertex -2.5 -150 2.5
      vertex -2.5 -110 87.5
      vertex -2.5 -110 2.5
    endloop
  endfacet
  facet normal -1 -0 0
    outer loop
      vertex -2.5 -110 87.5
      vertex -2.5 -150 2.5
      vertex -2.5 -150 87.5
    endloop
  endfacet
  facet normal 0 0 -1
    outer loop
      vertex -2.5 -150 87.5
      vertex -4 -110 87.5
      vertex -2.5 -110 87.5
    endloop
  endfacet
  facet normal 0 0 -1
    outer loop
      vertex -57.5 -150 87.5
      vertex -4 -110 87.5
      vertex -2.5 -150 87.5
    endloop
  endfacet
  facet normal -0 0 -1
    outer loop
      vertex -4 -110 87.5
      vertex -57.5 -150 87.5
      vertex -57.5 -110 87.5
    endloop
  endfacet
  facet normal -0 0 1
    outer loop
      vertex -4 -110 2.5
      vertex -2.5 -150 2.5
      vertex -2.5 -110 2.5
    endloop
  endfacet
  facet normal 0 0 1
    outer loop
      vertex -57.5 -150 2.5
      vertex -4 -110 2.5
      vertex -57.5 -110 2.5
    endloop
  endfacet
  facet normal 0 0 1
    outer loop
      vertex -4 -110 2.5
      vertex -57.5 -150 2.5
      vertex -2.5 -150 2.5
    endloop
  endfacet
  facet normal 1 -0 0
    outer loop
      vertex -57.5 -150 87.5
      vertex -57.5 -110 2.5
      vertex -57.5 -110 87.5
    endloop
  endfacet
  facet normal 1 0 0
    outer loop
      vertex -57.5 -110 2.5
      vertex -57.5 -150 87.5
      vertex -57.5 -150 2.5
    endloop
  endfacet
  facet normal 0 1 -0
    outer loop
      vertex -2.5 -150 2.5
      vertex -57.5 -150 87.5
      vertex -2.5 -150 87.5
    endloop
  endfacet
  facet normal 0 1 0
    outer loop
      vertex -57.5 -150 87.5
      vertex -2.5 -150 2.5
      vertex -57.5 -150 2.5
    endloop
  endfacet
  facet normal 0 -1 0
    outer loop
      vertex 0 -60 0
      vertex 25 -60 90
      vertex 0 -60 90
    endloop
  endfacet
  facet normal 0 -1 -0
    outer loop
      vertex 25 -60 90
      vertex 0 -60 0
      vertex 25 -60 0
    endloop
  endfacet
  facet normal -1 0 0
    outer loop
      vertex 25 -64 0
      vertex 25 -60 90
      vertex 25 -60 0
    endloop
  endfacet
  facet normal -1 -0 0
    outer loop
      vertex 25 -60 90
      vertex 25 -64 0
      vertex 25 -64 90
    endloop
  endfacet
  facet normal 0 -1 0
    outer loop
      vertex 25 -64 0
      vertex 29 -64 90
      vertex 25 -64 90
    endloop
  endfacet
  facet normal 0 -1 -0
    outer loop
      vertex 29 -64 90
      vertex 25 -64 0
      vertex 29 -64 0
    endloop
  endfacet
  facet normal 1 -0 0
    outer loop
      vertex 29 -64 90
      vertex 29 -56 0
      vertex 29 -56 90
    endloop
  endfacet
  facet normal 1 0 0
    outer loop
      vertex 29 -56 0
      vertex 29 -64 90
      vertex 29 -64 0
    endloop
  endfacet
  facet normal 0 1 -0
    outer loop
      vertex 29 -56 0
      vertex -4 -56 90
      vertex 29 -56 90
    endloop
  endfacet
  facet normal 0 1 0
    outer loop
      vertex -4 -56 90
      vertex 29 -56 0
      vertex -4 -56 0
    endloop
  endfacet
  facet normal -1 0 0
    outer loop
      vertex -4 -110 2.5
      vertex -4 -56 0
      vertex -4 -110 0
    endloop
  endfacet
  facet normal -1 0 0
    outer loop
      vertex -4 -56 0
      vertex -4 -110 2.5
      vertex -4 -56 90
    endloop
  endfacet
  facet normal -1 0 0
    outer loop
      vertex -4 -110 87.5
      vertex -4 -56 90
      vertex -4 -110 2.5
    endloop
  endfacet
  facet normal -1 -0 0
    outer loop
      vertex -4 -56 90
      vertex -4 -110 87.5
      vertex -4 -110 90
    endloop
  endfacet
endsolid OpenSCAD_Model
