solid OpenSCAD_Model
  facet normal 0 0 -1
    outer loop
      vertex 9.2998 -5 0
      vertex 0 0 0
      vertex 11.2998 0 0
    endloop
  endfacet
  facet normal 0 0 -1
    outer loop
      vertex 0 0 0
      vertex 2 -5 0
      vertex 0 -6.5 0
    endloop
  endfacet
  facet normal 0 0 -1
    outer loop
      vertex 9.2998 -5 0
      vertex 11.2998 -6.5 0
      vertex 9.2998 -6.5 0
    endloop
  endfacet
  facet normal 0 0 -1
    outer loop
      vertex 9.2998 -5 0
      vertex 11.2998 0 0
      vertex 11.2998 -6.5 0
    endloop
  endfacet
  facet normal 0 0 -1
    outer loop
      vertex 2 -5 0
      vertex 0 0 0
      vertex 9.2998 -5 0
    endloop
  endfacet
  facet normal 0 0 -1
    outer loop
      vertex 2 -6.5 0
      vertex 0 -6.5 0
      vertex 2 -5 0
    endloop
  endfacet
  facet normal 0 0 1
    outer loop
      vertex 11.2998 0 60
      vertex 0 0 60
      vertex 9.2998 -5 60
    endloop
  endfacet
  facet normal 0 0 1
    outer loop
      vertex 0 -6.5 60
      vertex 2 -5 60
      vertex 0 0 60
    endloop
  endfacet
  facet normal 0 0 1
    outer loop
      vertex 9.2998 -6.5 60
      vertex 11.2998 -6.5 60
      vertex 9.2998 -5 60
    endloop
  endfacet
  facet normal 0 -0 1
    outer loop
      vertex 11.2998 -6.5 60
      vertex 11.2998 0 60
      vertex 9.2998 -5 60
    endloop
  endfacet
  facet normal 0 0 1
    outer loop
      vertex 9.2998 -5 60
      vertex 0 0 60
      vertex 2 -5 60
    endloop
  endfacet
  facet normal 0 0 1
    outer loop
      vertex 2 -5 60
      vertex 0 -6.5 60
      vertex 2 -6.5 60
    endloop
  endfacet
  facet normal 0 -1 0
    outer loop
      vertex 9.2998 -5 0
      vertex 2 -5 60
      vertex 2 -5 0
    endloop
  endfacet
  facet normal 0 -1 0
    outer loop
      vertex 9.2998 -5 0
      vertex 9.2998 -5 60
      vertex 2 -5 60
    endloop
  endfacet
  facet normal -1 0 0
    outer loop
      vertex 9.2998 -6.5 0
      vertex 9.2998 -5 60
      vertex 9.2998 -5 0
    endloop
  endfacet
  facet normal -1 0 0
    outer loop
      vertex 9.2998 -6.5 0
      vertex 9.2998 -6.5 60
      vertex 9.2998 -5 60
    endloop
  endfacet
  facet normal 0 -1 0
    outer loop
      vertex 11.2998 -6.5 0
      vertex 9.2998 -6.5 60
      vertex 9.2998 -6.5 0
    endloop
  endfacet
  facet normal 0 -1 0
    outer loop
      vertex 11.2998 -6.5 0
      vertex 11.2998 -6.5 60
      vertex 9.2998 -6.5 60
    endloop
  endfacet
  facet normal 1 0 0
    outer loop
      vertex 11.2998 0 0
      vertex 11.2998 -6.5 60
      vertex 11.2998 -6.5 0
    endloop
  endfacet
  facet normal 1 0 -0
    outer loop
      vertex 11.2998 0 0
      vertex 11.2998 0 60
      vertex 11.2998 -6.5 60
    endloop
  endfacet
  facet normal 0 1 0
    outer loop
      vertex 0 0 0
      vertex 11.2998 0 60
      vertex 11.2998 0 0
    endloop
  endfacet
  facet normal 0 1 0
    outer loop
      vertex 0 0 0
      vertex 0 0 60
      vertex 11.2998 0 60
    endloop
  endfacet
  facet normal -1 0 0
    outer loop
      vertex 0 -6.5 0
      vertex 0 0 60
      vertex 0 0 0
    endloop
  endfacet
  facet normal -1 0 0
    outer loop
      vertex 0 -6.5 0
      vertex 0 -6.5 60
      vertex 0 0 60
    endloop
  endfacet
  facet normal 0 -1 0
    outer loop
      vertex 2 -6.5 0
      vertex 0 -6.5 60
      vertex 0 -6.5 0
    endloop
  endfacet
  facet normal 0 -1 0
    outer loop
      vertex 2 -6.5 0
      vertex 2 -6.5 60
      vertex 0 -6.5 60
    endloop
  endfacet
  facet normal 1 0 0
    outer loop
      vertex 2 -5 0
      vertex 2 -6.5 60
      vertex 2 -6.5 0
    endloop
  endfacet
  facet normal 1 0 -0
    outer loop
      vertex 2 -5 0
      vertex 2 -5 60
      vertex 2 -6.5 60
    endloop
  endfacet
endsolid OpenSCAD_Model
